<?xml version="1.0" encoding="UTF-8"?>
<!-- Created with Inkscape (http://www.inkscape.org/) -->
<svg width="48.78mm" height="70.08mm" version="1.1" viewBox="0 0 48.78 70.08" xmlns="http://www.w3.org/2000/svg">
 <g>
  <path d="m27.394 65.616c1.4968-2.6123 2.9923-5.9958 2.9923-9.0879 0-0.18062-0.0025-0.35842-0.0071-0.53305 0.0046 0.17462 0.0071 0.35242 0.0071 0.53305 0 3.0924-1.4951 6.4752-2.9923 9.0879m2.9923-16.083h-1.9435 1.9435v-2.7919h-5.9962 8.0338v-22.223c0-5.7302-1.1282-11.404-3.3203-16.698 2.1922 5.2941 3.3207 10.968 3.3207 16.698v4.3272h-3.53e-4v11.141l3.53e-4 6.7553h-2.038v2.7919m-4.1473-48.536c-0.1972-0.30762-0.45544-0.54434-0.74648-0.70944 0.29104 0.1651 0.54928 0.40181 0.74648 0.70944" fill="#e9eaea"/>
  <g transform="translate(.15555 -.15555)">
   <path d="m6.4014e-6 45.827c0 2.48 2.4014 5.4271 2.4014 5.4271s2.401-2.9471 2.401-5.4271-1.0749-3.5532-2.401-3.5532c-1.3264 0-2.4014 1.0732-2.4014 3.5532" fill="#f79d5d"/>
   <path d="m0.61525 44.917c0 1.8447 1.7861 4.0368 1.7861 4.0368s1.7861-2.1922 1.7861-4.0368c0-1.8443-0.79975-2.6427-1.7861-2.6427-0.98672 0-1.7861 0.79834-1.7861 2.6427" fill="#f0706e"/>
   <path d="m0.96238 44.403c0 1.4859 1.439 3.2523 1.439 3.2523s1.439-1.7664 1.439-3.2523c0-1.4863-0.64452-2.1294-1.439-2.1294-0.79481 0-1.439 0.64311-1.439 2.1294" fill="#f03f76"/>
   <path d="m48.78 45.827c0 2.48-2.4014 5.4271-2.4014 5.4271s-2.401-2.9471-2.401-5.4271 1.0749-3.5532 2.401-3.5532c1.3264 0 2.4014 1.0732 2.4014 3.5532" fill="#f79d5d"/>
   <path d="m48.164 44.917c0 1.8447-1.7861 4.0368-1.7861 4.0368s-1.7861-2.1922-1.7861-4.0368c0-1.8443 0.79975-2.6427 1.7861-2.6427 0.98672 0 1.7861 0.79834 1.7861 2.6427" fill="#f0706e"/>
   <path d="m47.817 44.403c0 1.4859-1.439 3.2523-1.439 3.2523s-1.439-1.7664-1.439-3.2523c0-1.4863 0.64417-2.1294 1.439-2.1294 0.79481 0 1.439 0.64311 1.439 2.1294" fill="#f03f76"/>
   <path d="m48.78 45.827v-0.01376 0.01376m0-0.0187v-0.0092 0.0092m0-0.01482v-0.0081 0.0081m0-0.01411v-0.0074 0.0074m-3.53e-4 -0.01446v-0.0064 0.0064m0-0.01411v-0.0056 0.0056m0-0.01411v-0.0042 0.0042m-3.52e-4 -0.01376v-0.0028 0.0028m-2.3947-3.4491h-6e-3 6e-3" fill="#e9eaea"/>
   <path d="m46.378 51.254v-2.3008s1.7861-2.1922 1.7861-4.0368c0-1.8408-0.79657-2.6395-1.7801-2.6427 0.12136 3.53e-4 0.23954 0.0127 0.35419 0.03775 1.1356 0.18098 2.013 1.2319 2.0405 3.4085v0.0028c0 0.0032 3.52e-4 0.0063 3.52e-4 0.0095v0.0042 0.0085 0.0056 0.0078 0.0064c3.53e-4 0.0025 3.53e-4 0.0046 3.53e-4 0.0071v0.0074 6e-3 0.0081 0.0056 0.0092 0.0049 0.01376c0 2.48-2.4014 5.4271-2.4014 5.4271" fill="#df8e55"/>
   <path d="m46.378 48.954v-1.2979s1.439-1.7664 1.439-3.2523c0-1.4863-0.64417-2.1294-1.439-2.1294h6e-3c0.98354 0.0032 1.7801 0.80186 1.7801 2.6427 0 1.8447-1.7861 4.0368-1.7861 4.0368" fill="#d86664"/>
   <path d="m46.378 47.656v-5.3816c0.79481 0 1.439 0.64311 1.439 2.1294 0 1.4859-1.439 3.2523-1.439 3.2523" fill="#d83b6c"/>
   <path d="m4.8024 45.827v-0.01376 0.01376m0-0.01905v-0.0085 0.0085m0-0.01482v-0.0074 0.0074m0-0.01411v-0.0071 0.0071m0-0.01446v-0.0056 0.0056m-3.528e-4 -0.01411v-0.0046 0.0046m0-0.01411v-0.0028 0.0028m0-0.01376v-0.0011 0.0011m-2.395-3.4488h-0.00564 0.00564" fill="#e9eaea"/>
   <path d="m2.4014 51.254v-2.3008s1.7861-2.1922 1.7861-4.0368c0-1.8408-0.79657-2.6395-1.7805-2.6427 0.12136 3.53e-4 0.23954 0.0127 0.35419 0.03775 1.1359 0.18098 2.0133 1.2323 2.0408 3.41v0.0011 0.01094 0.0028 0.0095 0.0046c0 0.0028 3.528e-4 0.0056 3.528e-4 0.0085v0.0056 0.0074 0.0071 0.0067 0.0074 0.0063 0.0085 0.0053 0.01376c0 2.48-2.401 5.4271-2.401 5.4271" fill="#df8e55"/>
   <path d="m2.4014 48.954v-1.2979s1.439-1.7664 1.439-3.2523c0-1.4863-0.64452-2.1294-1.439-2.1294h0.00564c0.9839 0.0032 1.7805 0.80186 1.7805 2.6427 0 1.8447-1.7861 4.0368-1.7861 4.0368" fill="#d86664"/>
   <path d="m2.4014 47.656v-5.3816c0.79446 0 1.439 0.64311 1.439 2.1294 0 1.4859-1.439 3.2523-1.439 3.2523" fill="#d83b6c"/>
   <path d="m30.386 56.528c0 6.1923-5.9962 13.552-5.9962 13.552s-5.9958-7.3596-5.9958-13.552c0-6.192 2.6846-8.872 5.9958-8.872 3.3115 0 5.9962 2.6801 5.9962 8.872" fill="#f79d5d"/>
   <path d="m28.849 54.255c0 4.6059-4.4598 10.08-4.4598 10.08s-4.4598-5.4741-4.4598-10.08 1.9967-6.5991 4.4598-6.5991c2.4631 0 4.4598 1.9932 4.4598 6.5991" fill="#f0706e"/>
   <path d="m27.983 52.972c0 3.7109-3.5934 8.1213-3.5934 8.1213s-3.593-4.4104-3.593-8.1213c0-3.7109 1.6087-5.3167 3.593-5.3167 1.9847 0 3.5934 1.6058 3.5934 5.3167" fill="#f03f76"/>
   <path d="m24.39 70.08v-5.745s4.4598-5.4741 4.4598-10.08c0-2.0951-0.4131-3.6495-1.0954-4.7219h0.68827-0.01235c1.1328 1.354 1.8708 3.4685 1.9487 6.4618 0.0046 0.17462 0.0071 0.35242 0.0071 0.53305 0 3.0921-1.4954 6.4756-2.9923 9.0879-1.5007 2.619-3.0039 4.464-3.0039 4.464" fill="#df8e55"/>
   <path d="m24.39 64.335v-3.241s3.5934-4.4104 3.5934-8.1213c0-1.4637-0.25047-2.6-0.67557-3.4396h0.44662c0.68227 1.0724 1.0954 2.6268 1.0954 4.7219 0 4.6059-4.4598 10.08-4.4598 10.08" fill="#d86664"/>
   <path d="m24.39 61.094v-11.561h2.9178c0.4251 0.83961 0.67557 1.9759 0.67557 3.4396 0 3.7109-3.5934 8.1213-3.5934 8.1213" fill="#d83b6c"/>
  </g>
  <path d="m32.423 46.741h-16.068v-22.223c0-5.7302 1.1285-11.404 3.3207-16.698l2.6741-6.4572c0.75248-1.8165 3.326-1.8165 4.0781 0l2.6744 6.4572c2.1922 5.2941 3.3203 10.968 3.3203 16.698v22.223" fill="#bec0bb"/>
  <path d="m48.78 41.688h-4.8024v-6.5334c0-1.3264 1.0749-2.4014 2.401-2.4014 1.3264 0 2.4014 1.0749 2.4014 2.4014v6.5334" fill="#bec0bb"/>
  <path d="m16.356 31.449h16.068v-0.9124h-16.068z" fill="#5b7288"/>
  <path d="m17.602 38.023h13.576v-5.2702h-13.576z" fill="#adadab"/>
  <path d="m18.394 49.533h11.992v-2.7919h-11.992z" fill="#364753"/>
  <path d="m43.977 39.986h-11.554v-11.141l11.554 7.3067v3.834" fill="#2e7096"/>
  <path d="m32.424 28.845v1.6916l11.553 7.3067v-1.6916l-11.553-7.3067" fill="#3c91ad"/>
  <path d="m4.8024 39.986h11.553v-11.141l-11.553 7.3067v3.834" fill="#2e7096"/>
  <path d="m48.164 42.861h-3.5722v-1.173h3.5722v1.173" fill="#364753"/>
  <path d="m48.776 38.023h-4.7988v-0.91264h4.7988v0.91264" fill="#5b7288"/>
  <path d="m48.776 39.986h-4.7988v-0.91264h4.7988v0.91264" fill="#5b7288"/>
  <path d="m6.4014e-6 41.688h4.8024v-6.5334c0-1.3264-1.0749-2.4014-2.401-2.4014-1.3264 0-2.4014 1.0749-2.4014 2.4014v6.5334" fill="#bec0bb"/>
  <path d="m0.61525 42.861h3.5719v-1.173h-3.5719v1.173" fill="#364753"/>
  <path d="m0.0035342 38.023h4.7988v-0.91264h-4.7988v0.91264" fill="#5b7288"/>
  <path d="m0.0035342 39.986h4.7988v-0.91264h-4.7988v0.91264" fill="#5b7288"/>
  <path d="m32.423 46.741h-8.0338v-8.7178h6.7882v-5.2701h-6.7882v-1.3042h8.0338v15.292m0-16.204h-8.0338v-5.7616c3.0275 0 5.4906-2.4624 5.4906-5.4899s-2.4631-5.491-5.4906-5.491v-13.794c0.38241 0 0.76447 0.095956 1.1024 0.28787 0.29104 0.1651 0.54928 0.40181 0.74648 0.70944 0.07197 0.11218 0.13582 0.23389 0.19015 0.36513l2.6744 6.4572c2.1922 5.2941 3.3203 10.968 3.3203 16.698v6.0187" fill="#aaadaa"/>
  <path d="m24.39 31.449h8.0338v-0.9124h-8.0338z" fill="#51667c"/>
  <path d="m24.39 38.023h6.7882v-5.2702h-6.7882z" fill="#9a9b9b"/>
  <path d="m30.386 49.533h-5.9962v-2.7919h5.9962v2.7919" fill="#31404b"/>
  <path d="m32.423 39.986v-11.141l3.53e-4 1.6916v9.4492" fill="#2a6488"/>
  <path d="m16.356 28.845v1.6916l-11.553 7.3064v-1.6912l11.553-7.3067" fill="#3c91ad"/>
  <path d="m24.39 24.775c-3.0272 0-5.4903-2.4624-5.4903-5.4899s2.4631-5.491 5.4903-5.491c3.0275 0 5.4906 2.4634 5.4906 5.491s-2.4631 5.4899-5.4906 5.4899" fill="#364753"/>
  <path d="m28.883 19.285c0 2.4814-2.0119 4.493-4.4933 4.493s-4.493-2.0115-4.493-4.493 2.0115-4.493 4.493-4.493 4.4933 2.0115 4.4933 4.493" fill="#25323a"/>
  <path d="m22.271 19.082c-0.66005 0-1.1949-0.53516-1.1949-1.1952 0-0.66005 0.53481-1.1949 1.1949-1.1949s1.1949 0.53481 1.1949 1.1949c0 0.66005-0.53481 1.1952-1.1949 1.1952" fill="#415d6c"/>
 </g>
</svg>
